<svg width="119" height="36" viewBox="0 0 119 36" fill="none" xmlns="http://www.w3.org/2000/svg">
<g clip-path="url(#clip0_1089_4370)">
<path d="M20.2456 23.9879H0.585938L1.98996 17.8759L12.0673 7.89519H4.28454L6.09764 0.00195312H25.7573L24.3768 6.01069L14.1884 16.0253H22.0755L20.2473 23.9862L20.2456 23.9879Z" fill="#1f2937"/>
<path d="M42.7146 7.04768H33.1777L32.8293 8.56678H39.2046L37.7046 15.0932H31.3293L30.9522 16.7341H40.5244L38.8578 23.9862H21.3984L26.9085 0.00195312H44.3341L42.7163 7.04768H42.7146Z" fill="#1f2937"/>
<path d="M58.8106 17.537L62.1388 23.9957H52.2753L50.0144 19.6261H48.8983L47.8949 23.9957H40.0078L45.5162 0.00976562H56.617C59.4924 0.00976562 61.6624 0.982464 63.1304 2.92786C64.6691 4.90878 65.1657 7.08425 64.6203 9.45425C63.9721 12.2742 62.4233 14.6814 59.9722 16.6725C59.5917 16.9838 59.2045 17.2714 58.8123 17.5353L58.8106 17.537ZM50.6811 11.8564H53.8948C54.5598 11.8564 55.1709 11.6145 55.7281 11.1307C56.3005 10.6824 56.6641 10.1241 56.8173 9.45594C56.9739 8.77759 56.8678 8.21258 56.5008 7.76429C56.1574 7.316 55.6524 7.09101 54.9891 7.09101H51.7753L50.6811 11.8564Z" fill="#1f2937"/>
<path d="M5.97983 36.0005C5.88227 36.0005 5.79528 35.9924 5.71885 35.976C5.64243 35.9613 5.58958 35.9466 5.56031 35.9319L5.70666 35.4221C5.8465 35.4581 5.97008 35.4712 6.0774 35.4613C6.18472 35.4515 6.27984 35.4033 6.36277 35.3167C6.44732 35.2318 6.52456 35.0937 6.59448 34.9025L6.7018 34.6084L5.31641 30.8242H5.94081L6.97498 33.8241H7.014L8.04817 30.8242H8.67257L7.0823 35.1378C7.01075 35.3323 6.92213 35.4932 6.81644 35.6207C6.71074 35.7497 6.58798 35.8453 6.44814 35.9074C6.30992 35.9695 6.15382 36.0005 5.97983 36.0005Z" fill="#929497"/>
<path d="M1.21875 34.5878V29.5684H2.96513C3.3131 29.5684 3.6001 29.6288 3.82612 29.7497C4.05214 29.869 4.22044 30.0299 4.33101 30.2326C4.44158 30.4335 4.49686 30.6566 4.49686 30.9017C4.49686 31.1173 4.45865 31.2954 4.38223 31.436C4.30743 31.5765 4.20824 31.6876 4.08466 31.7693C3.96271 31.851 3.83018 31.9114 3.68709 31.9506V31.9997C3.83994 32.0095 3.9936 32.0634 4.14808 32.1614C4.30255 32.2595 4.43182 32.4 4.53589 32.583C4.63996 32.766 4.69199 32.9898 4.69199 33.2545C4.69199 33.5062 4.63508 33.7325 4.52126 33.9334C4.40743 34.1344 4.22775 34.2937 3.98222 34.4114C3.73669 34.529 3.41717 34.5878 3.02366 34.5878H1.21875ZM1.82364 34.0486H3.02366C3.41879 34.0486 3.69929 33.9718 3.86514 33.8182C4.03263 33.663 4.11637 33.4751 4.11637 33.2545C4.11637 33.0846 4.07328 32.9277 3.9871 32.784C3.90092 32.6385 3.77815 32.5225 3.6188 32.4359C3.45945 32.3477 3.27082 32.3036 3.05293 32.3036H1.82364V34.0486ZM1.82364 31.7742H2.94561C3.12773 31.7742 3.29196 31.7382 3.43831 31.6663C3.58628 31.5944 3.70335 31.4931 3.78953 31.3624C3.87734 31.2317 3.92124 31.0781 3.92124 30.9017C3.92124 30.6811 3.84482 30.494 3.69197 30.3404C3.53912 30.1852 3.29684 30.1076 2.96513 30.1076H1.82364V31.7742Z" fill="#929497"/>
<path d="M64.3529 28.4297H65.3365L67.9962 34.5456H66.8726L66.2604 33.079H63.401L62.7795 34.5456H61.6914L64.3529 28.4297ZM65.8722 32.1338L64.8289 29.705L63.793 32.1338H65.8722Z" fill="#929497"/>
<path d="M55.6523 28.4727H56.705V30.9971H59.6036V28.4727H60.6562V34.5455H59.6036V31.9854H56.705V34.5455H55.6523V28.4727Z" fill="#929497"/>
<path d="M18.4406 29.7157C18.8475 30.2464 19.1872 30.8428 19.4485 31.4861V28.084H16.5742C17.2648 28.461 17.8975 29.0086 18.4406 29.7157Z" fill="#929497"/>
<path d="M14.2983 28.4473C13.7664 28.4473 13.255 28.5617 12.7734 28.7736V34.792H19.1547C19.1043 31.283 16.9449 28.4473 14.2983 28.4473Z" fill="#929497"/>
<path d="M23.2617 33.756L26.8285 29.4199H23.3756V28.4746H28.2096V29.2623L24.6429 33.6003H28.2096V34.5455H23.2617V33.756Z" fill="#929497"/>
<path d="M29.5391 28.4727H34.011V29.4367H30.5917V30.9989H33.6228V31.9629H30.5917V33.5852H34.0539V34.5492H29.5391V28.4764V28.4727Z" fill="#929497"/>
<path d="M35.3203 28.4727H38.0154C38.3962 28.4727 38.7321 28.527 39.027 28.6339C39.3201 28.7409 39.5646 28.8909 39.7605 29.0803C39.921 29.2472 40.0442 29.4423 40.1319 29.6617C40.2197 29.8811 40.2607 30.1231 40.2607 30.3894V30.4063C40.2607 30.6557 40.2234 30.8789 40.1525 31.0777C40.0816 31.2784 39.9808 31.4547 39.8557 31.6066C39.7288 31.7604 39.5776 31.8898 39.4022 31.9967C39.2267 32.1036 39.0326 32.1861 38.818 32.2442L40.4492 34.5436H39.1969L37.7075 32.4262H36.3767V34.5436H35.324V28.4727H35.3203ZM37.9333 31.4828C38.3141 31.4828 38.6183 31.3909 38.8423 31.209C39.0662 31.0271 39.1801 30.7776 39.1801 30.4625V30.4457C39.1801 30.1156 39.07 29.8624 38.8516 29.6917C38.6332 29.5211 38.3234 29.4348 37.9258 29.4348H36.373V31.4809H37.9333V31.4828Z" fill="#929497"/>
<path d="M44.4474 34.6483C43.9808 34.6483 43.5552 34.5676 43.1708 34.4007C42.7844 34.2356 42.4541 34.0125 42.1778 33.7293C41.9016 33.4461 41.6851 33.116 41.5302 32.7371C41.3753 32.3583 41.2969 31.9551 41.2969 31.5275V31.5106C41.2969 31.083 41.3734 30.6797 41.5302 30.3009C41.6851 29.922 41.9053 29.5901 42.1853 29.3031C42.4671 29.0181 42.8012 28.7911 43.1857 28.6223C43.5702 28.4554 43.9976 28.3691 44.4623 28.3691C44.9271 28.3691 45.3545 28.4498 45.739 28.6167C46.1234 28.7817 46.4557 29.0049 46.7319 29.2881C47.0081 29.5713 47.2246 29.9014 47.3795 30.2803C47.5345 30.6591 47.6128 31.0623 47.6128 31.4899V31.5068C47.6128 31.9344 47.5363 32.3377 47.3795 32.7165C47.2246 33.0954 47.0044 33.4273 46.7244 33.7143C46.4426 33.9993 46.1085 34.2263 45.724 34.3951C45.3377 34.5639 44.9121 34.6483 44.4474 34.6483ZM44.4623 33.6693C44.7591 33.6693 45.0353 33.613 45.2836 33.5005C45.5337 33.3879 45.7446 33.2341 45.9237 33.041C46.101 32.8459 46.241 32.619 46.3418 32.3602C46.4426 32.0995 46.493 31.8219 46.493 31.5275V31.5106C46.493 31.2161 46.4426 30.9348 46.3418 30.6741C46.241 30.4115 46.101 30.1827 45.92 29.9877C45.7408 29.7926 45.5243 29.6407 45.2705 29.5244C45.0167 29.4082 44.7423 29.3519 44.4455 29.3519C44.1488 29.3519 43.8725 29.4082 43.6243 29.5207C43.3742 29.6332 43.1633 29.787 42.9841 29.9802C42.8068 30.1752 42.6668 30.4022 42.566 30.661C42.4653 30.9217 42.4149 31.1992 42.4149 31.4937V31.5106C42.4149 31.805 42.4653 32.0863 42.566 32.347C42.6668 32.6115 42.8068 32.8384 42.9879 33.0335C43.1689 33.2285 43.3835 33.3804 43.6374 33.4967C43.8912 33.6111 44.1656 33.6693 44.4623 33.6693Z" fill="#929497"/>
<path d="M48.8984 28.4727H51.1512C51.6234 28.4727 52.0564 28.5496 52.4502 28.7015C52.8441 28.8553 53.1837 29.0672 53.4693 29.3391C53.753 29.6111 53.9732 29.9318 54.13 30.2994C54.2849 30.667 54.3633 31.0646 54.3633 31.4922V31.5091C54.3633 31.9367 54.2868 32.3361 54.13 32.7056C53.9751 33.077 53.7549 33.3977 53.4693 33.6696C53.1856 33.9416 52.8459 34.1554 52.4502 34.3129C52.0564 34.4686 51.6234 34.5473 51.1512 34.5473H48.8984V28.4745V28.4727ZM51.1437 33.5815C51.461 33.5815 51.7485 33.5308 52.0079 33.4296C52.2673 33.3283 52.4876 33.1857 52.6686 33.0019C52.8496 32.82 52.9915 32.6025 53.0923 32.3493C53.1931 32.0961 53.2435 31.8223 53.2435 31.5259V31.5091C53.2435 31.2146 53.1931 30.937 53.0923 30.682C52.9915 30.425 52.8515 30.2075 52.6686 30.0237C52.4876 29.8418 52.2673 29.6973 52.0079 29.5923C51.7485 29.4873 51.461 29.4348 51.1437 29.4348H49.953V33.5815H51.1437Z" fill="#929497"/>
<path d="M83.706 14.3025C83.0898 16.9872 81.6319 19.254 79.334 21.1029C77.0124 23.0061 74.5276 23.9585 71.8778 23.9585C69.228 23.9585 67.255 23.0077 65.7668 21.1029C64.3291 19.254 63.9184 16.9855 64.5362 14.3025L65.6018 9.66739C66.218 6.98275 67.6708 4.71086 69.962 2.85005C72.3206 0.95709 74.7936 0.00976562 77.3794 0.00976562C79.9653 0.00976562 82.078 0.955398 83.5275 2.84835C84.9736 4.70917 85.3877 6.98105 84.7699 9.6657L83.7043 14.3008L83.706 14.3025ZM77.4283 9.66739C77.573 9.03641 77.4788 8.50185 77.1421 8.06371C76.8071 7.62557 76.3189 7.40566 75.6808 7.40566C75.0428 7.40566 74.4872 7.62557 73.9502 8.06371C73.4132 8.50185 73.0714 9.03641 72.9266 9.66739L71.861 14.3025C71.7179 14.9234 71.8155 15.4528 72.1506 15.891C72.4856 16.3291 72.962 16.549 73.5798 16.549C74.1977 16.549 74.8054 16.3308 75.3441 15.891C75.8811 15.4528 76.2212 14.9234 76.3626 14.3025L77.4283 9.66739Z" fill="#1f2937"/>
<path d="M106.17 0L102.875 14.0796L108.259 13.9493L105.341 23.9842L119.001 8.98097L112.525 9.13829L118.124 0H106.17Z" fill="#FABF14"/>
<path d="M119 8.98047L105.34 23.9837L115.378 9.06843L119 8.98047Z" fill="#E8A524"/>
<path d="M118.123 0L112.406 9.31761L115.792 0H118.123Z" fill="#E8A524"/>
<path d="M88.7222 0.00976562H99.6985L94.1901 23.9872H86.5977L90.3569 7.62219H86.9748L88.7222 0.00976562Z" fill="#1f2937"/>
<path d="M99.6958 0.00976562H99.7059H99.7194L94.3205 23.9872H94.1875L96.9535 3.83797L98.8844 0.283813L99.6958 0.00976562Z" fill="#1f2937"/>
<path d="M106.908 7.76831L106.661 8.7833L105.273 8.74271L105.529 7.69727L106.908 7.76831Z" fill="#FFE57D"/>
<path d="M105.734 6.84719L107.191 0.892578L108.576 0.934869L107.122 6.88778L105.734 6.84719Z" fill="#FFE57D"/>
<path d="M107.191 0.892578H108.588L108.553 1.03468L107.568 1.14802L107.282 0.995769L107.188 0.901036" fill="#FFE57D"/>
<path d="M107.125 6.88867H105.723L105.782 6.67383L106.931 6.68905L107.125 6.88867Z" fill="#FFE57D"/>
<path d="M105.527 7.69727H106.926L106.866 7.9341L105.97 8.22168L105.527 7.69727Z" fill="#FFE57D"/>
<path d="M106.658 8.78311H105.266L105.303 8.63086" fill="#FFE57D"/>
</g>
<defs>
<clipPath id="clip0_1089_4370">
<rect width="119" height="36" fill="white"/>
</clipPath>
</defs>
</svg>